# xmcd
#
# Track frame offsets:
#	183
#	11035
#	21035
#	30848
#	39220
#	49703
#	59145
#	68103
#	82528
#	92113
#	100285
#	108538
#	121388
#	134120
#	145163
#	155605
#	165403
#	178543
#	189183
#	203635
#	215248
#	226058
#	236498
#	250428
#	261320
#	270493
#	281120
#	294840
#
# Disc length: 4090 seconds
#
# Revision: 0
# Processed by: cddbd v1.5PL3 Copyright (c) Steve Scherf et al.
# Submitted via: audiograbber 1.80
#
DISCID=890ff81c
DTITLE=Claude François - 1é' succés, 124 souvenirs
DYEAR=1900
DGENRE=blues
TTITLE0=Le nabout twist
TTITLE1=Belles, belles, belles
TTITLE2=Hey patateos
TTITLE3=Moi, je voudrais bien me marier
TTITLE4=Dis-lui
TTITLE5=Langage d'amour
TTITLE6=marche tout droit
TTITLE7=Pauvre petite fille riche
TTITLE8=Si tu veux être heureux
TTITLE9=Des bises de toi pour moi
TTITLE10=Comment fais-tu
TTITLE11=Si j'avais un marteau
TTITLE12=En rêvant à noël
TTITLE13=De ville en ville
TTITLE14=Laisse-moi tenir ta main
TTITLE15=Chaque jour c'est la même chose
TTITLE16=Maman chérie
TTITLE17=J'y pense et puis j'oublie
TTITLE18=La ferme du bonheur
TTITLE19=Donna, Donna
TTITLE20=Petite mèche de cheveux
TTITLE21=Dis-moi quand
TTITLE22=Je sais
TTITLE23=Les cloches sonnaient
TTITLE24=Du pain du beurre
TTITLE25=Les choses de la maison
TTITLE26=Tout ça c'était hier
TTITLE27=Alort salut
EXTD=
EXTT0=Compilation Sélection du Reader's Digest Disque 1
EXTT1=
EXTT2=
EXTT3=
EXTT4=
EXTT5=
EXTT6=
EXTT7=
EXTT8=
EXTT9=
EXTT10=
EXTT11=
EXTT12=
EXTT13=
EXTT14=
EXTT15=
EXTT16=
EXTT17=
EXTT18=
EXTT19=
EXTT20=
EXTT21=
EXTT22=
EXTT23=
EXTT24=
EXTT25=
EXTT26=
EXTT27=
PLAYORDER=
